<svg xmlns="http://www.w3.org/2000/svg" viewBox="0 0 1400 800"><defs><linearGradient id="g" x1="0" x2="1"><stop stop-color="#eee5d5"/><stop offset="1" stop-color="#c9b797"/></linearGradient><linearGradient id="car" x1="0" x2="1"><stop stop-color="#f8f5ed"/><stop offset=".5" stop-color="#cbd1cd"/><stop offset="1" stop-color="#8e9b95"/></linearGradient></defs><rect width="1400" height="800" fill="url(#g)"/><ellipse cx="760" cy="635" rx="500" ry="42" fill="#10211c" opacity=".18"/><path d="M250 555 C300 455 405 425 555 410 C665 320 820 300 1010 350 C1120 380 1200 445 1245 545 L1215 600 H270 Z" fill="url(#car)" stroke="#89958f" stroke-width="4"/><path d="M575 410 C680 335 800 325 980 365 L1040 425 H525 Z" fill="#263b34"/><circle cx="480" cy="590" r="78" fill="#11201b"/><circle cx="480" cy="590" r="43" fill="#aeb7b2"/><circle cx="1080" cy="590" r="78" fill="#11201b"/><circle cx="1080" cy="590" r="43" fill="#aeb7b2"/><text x="90" y="120" fill="#705936" font-family="Arial" font-size="28" letter-spacing="8">PREMIUM ELECTRIC SUV</text><text x="88" y="205" fill="#10211c" font-family="Arial" font-weight="700" font-size="92" letter-spacing="8">LEPAS E4</text><text x="90" y="250" fill="#10211c" opacity=".5" font-family="Arial" font-size="20">Stylized product illustration • not a vehicle photograph</text></svg>